# xmcd CD database file generated by OrangeCD 5.2
#
# Track frame offsets:
#	150
#	10695
#	23002
#	35572
#	49055
#	61165
#	74962
#	87672
#	98135
#	109635
#	118917
#	132465
#
# Disc length: 1926 seconds
#
# Revision: 4
# Processed by: cddbd v1.5.1PL0 Copyright (c) Steve Scherf et al.
# Submitted via: OrangeCD 5.2
#
DISCID=a807840c
DTITLE=Various Artist - The Best Of Chess Rhythm and  Blues Volume 1
DYEAR=1988
DGENRE=R&B Chess
TTITLE0=The Moonglows - Please Send Me Someone To Love 
TTITLE1=The Miracles - Bad Girl 
TTITLE2=Jimmy McCracklin - The Walk 
TTITLE3=The Corsairs - Smokey Places 
TTITLE4=The Vibrations - The Watusi 
TTITLE5=Sugar Pie DeSanto - I Want To Know 
TTITLE6=Etta James - Something's Got A Hold On Me 
TTITLE7=Clarence "Frogman" Henry - (I Don't Know Why) But I Do 
TTITLE8=Bobby Moore and The Rhythm Aces - Searching For My Love 
TTITLE9=Jan Bradley - Mama Didn't Lie 
TTITLE10=Billy Stewart - I Do Love You 
TTITLE11=Little Milton - We're Gonna Make It 
EXTD=
EXTT0=
EXTT1=
EXTT2=
EXTT3=
EXTT4=
EXTT5=
EXTT6=
EXTT7=
EXTT8=
EXTT9=
EXTT10=
EXTT11=
PLAYORDER=
